<svg xmlns="http://www.w3.org/2000/svg" width="360" height="96" viewBox="0 0 360 96" role="img" aria-labelledby="title">
  <title id="title">Playoff</title>
  <g fill="#0057ff">
    <path d="M48 10c-21 0-38 17-38 38s17 38 38 38h8V66h-8c-10 0-18-8-18-18s8-18 18-18 18 8 18 18v38h20V48c0-21-17-38-38-38Zm0 56c-10 0-18-8-18-18s8-18 18-18 18 8 18 18-8 18-18 18Z" />
    <path d="M126 32c13 0 22 10 22 24s-9 24-22 24c-7 0-12-3-16-8v28H92V34h18v7c4-6 9-9 16-9Zm-4 15c-7 0-12 5-12 13s5 13 12 13 12-5 12-13-5-13-12-13Z" />
    <path d="M157 14h18v66h-18V14Z" />
    <path d="M208 32c7 0 12 3 16 8v-6h18v46h-18v-7c-4 5-9 8-16 8-13 0-22-10-22-24s9-25 22-25Zm4 15c-7 0-12 5-12 13s5 13 12 13 12-5 12-13-5-13-12-13Z" />
    <path d="M248 34h19l12 27 11-27h19l-29 66h-19l9-20-22-46Z" />
    <path d="M331 32c15 0 26 10 26 25s-11 24-26 24-26-10-26-24 11-25 26-25Zm0 16c-6 0-10 4-10 9s4 9 10 9 10-4 10-9-4-9-10-9Z" />
  </g>
</svg>
